<?xml version="1.0" encoding="UTF-8"?><svg id="Layer_2" xmlns="http://www.w3.org/2000/svg" viewBox="0 0 705 451.38"><defs><style>.cls-1,.cls-2,.cls-3,.cls-4{stroke:#000;stroke-miterlimit:10;}.cls-1,.cls-4{stroke-width:5px;}.cls-2{stroke-width:25px;}.cls-2,.cls-3{fill:none;}.cls-3{stroke-width:45px;}.cls-4{fill:#fff;}</style></defs><g id="Layer_1-2"><path class="cls-4" d="M265,153.31h87.5v285.57c0,5.52-4.48,10-10,10h-67.5c-5.52,0-10-4.48-10-10V153.31h0Z"/><path class="cls-4" d="M12.5,153.31h77.5v285.57c0,5.52-4.48,10-10,10H12.5c-5.52,0-10-4.48-10-10V163.31c0-5.52,4.48-10,10-10Z"/><path class="cls-4" d="M527.66,153.31h87.5v285.57c0,5.52-4.48,10-10,10h-67.5c-5.52,0-10-4.48-10-10V153.31h0Z"/><path class="cls-4" d="M177.5,153.31h87.5v285.57c0,5.52-4.48,10-10,10h-67.5c-5.52,0-10-4.48-10-10V153.31h0Z"/><path class="cls-4" d="M90,153.31h87.5v285.57c0,5.52-4.48,10-10,10h-67.5c-5.52,0-10-4.48-10-10V153.31h0Z"/><path class="cls-4" d="M353.16,153.31h87.5v285.57c0,5.52-4.48,10-10,10h-67.5c-5.52,0-10-4.48-10-10V153.31h0Z"/><path class="cls-4" d="M440.66,153.31h87.5v285.57c0,5.52-4.48,10-10,10h-67.5c-5.52,0-10-4.48-10-10V153.31h0Z"/><path class="cls-4" d="M615,153.31h77.5c5.52,0,10,4.48,10,10v275.57c0,5.52-4.48,10-10,10h-67.5c-5.52,0-10-4.48-10-10V153.31h0Z"/><path class="cls-1" d="M255.33,5.19h20c11.04,0,20,8.96,20,20v131.47h-60V25.19c0-11.04,8.96-20,20-20Z"/><path class="cls-1" d="M605,4.07h20c11.04,0,20,8.96,20,20v131.47h-60V24.07c0-11.04,8.96-20,20-20Z"/><rect class="cls-1" x="557.66" y="111.64" width="86.44" height="40"/><path class="cls-1" d="M517.66,5.19h20c11.04,0,20,8.96,20,20v126.82h-10c-27.6,0-50-22.4-50-50V25.19c0-11.04,8.96-20,20-20Z"/><path class="cls-1" d="M60,153.31h60v191.74c0,2.76-2.24,5-5,5h-50c-2.76,0-5-2.24-5-5v-191.74h0Z"/><path class="cls-1" d="M235.33,153.31h60v191.74c0,2.76-2.24,5-5,5h-50c-2.76,0-5-2.24-5-5v-191.74h0Z"/><path class="cls-1" d="M322.5,153.31h60v191.74c0,2.76-2.24,5-5,5h-50c-2.76,0-5-2.24-5-5v-191.74h0Z"/><path class="cls-1" d="M410.08,153.31h60v191.74c0,2.76-2.24,5-5,5h-50c-2.76,0-5-2.24-5-5v-191.74h0Z"/><path class="cls-1" d="M585.16,153.31h60v191.74c0,2.76-2.24,5-5,5h-50c-2.76,0-5-2.24-5-5v-191.74h0Z"/><path class="cls-1" d="M342.5,2.5h20v146.08h-40V22.5c0-11.04,8.96-20,20-20Z"/><rect class="cls-1" x="362.5" y="2.5" width="67.58" height="40"/><rect class="cls-1" x="362.5" y="108.58" width="67.58" height="40"/><path class="cls-1" d="M430.08,2.5h20c11.04,0,20,8.96,20,20v126.08h-40V2.5h0Z"/><path class="cls-1" d="M79.96,5.56h20v146.08h-40V25.56c0-11.04,8.96-20,20-20Z"/><rect class="cls-1" x="99.96" y="5.56" width="67.58" height="40"/><rect class="cls-1" x="99.96" y="111.64" width="67.58" height="40"/><path class="cls-1" d="M157.49,5.56h30.05c11.04,0,20,8.96,20,20v76.08c0,27.6-22.4,50-50,50h-.05V5.56h0Z"/><rect class="cls-2" x="99.96" y="45.56" width="67.58" height="66.08" rx="20.16" ry="20.16"/><rect class="cls-2" x="362.5" y="42.5" width="67.58" height="66.08" rx="19.7" ry="19.7"/><path class="cls-3" d="M537.75,53.73v29.35c0,18.59,15.07,33.67,33.67,33.67h0c18.59,0,33.67-15.07,33.67-33.67v-29.35"/></g></svg>